<svg id="Group_3975" data-name="Group 3975" xmlns="http://www.w3.org/2000/svg" xmlns:xlink="http://www.w3.org/1999/xlink" width="125.986" height="56" viewBox="0 0 125.986 56"><defs><linearGradient id="linear-gradient" x1=".197" y1=".527" x2="1.005" y2=".248" gradientUnits="objectBoundingBox"><stop offset="0" stop-color="#fff"/><stop offset="1" stop-color="#1e754a"/></linearGradient><linearGradient id="linear-gradient-2" x1=".491" y1=".605" x2=".618" y2="-.265" xlink:href="#linear-gradient"/><linearGradient id="linear-gradient-3" x1=".221" y1=".977" x2=".851" y2=".251" xlink:href="#linear-gradient"/><linearGradient id="linear-gradient-4" x1=".516" y1=".633" x2="-.245" y2=".031" xlink:href="#linear-gradient"/><linearGradient id="linear-gradient-5" x1=".291" y1=".977" x2=".572" y2=".275" xlink:href="#linear-gradient"/><linearGradient id="linear-gradient-6" x1=".274" y1=".9" x2=".798" y2=".277" xlink:href="#linear-gradient"/><linearGradient id="linear-gradient-7" x1=".367" y1=".85" x2="1.037" y2=".102" xlink:href="#linear-gradient"/><linearGradient id="linear-gradient-8" x1=".46" y1=".92" x2=".584" y2=".042" xlink:href="#linear-gradient"/><linearGradient id="linear-gradient-9" x1=".132" y1=".723" x2=".982" y2="-.129" xlink:href="#linear-gradient"/><linearGradient id="linear-gradient-10" x1=".497" y1=".9" x2=".524" y2="-.249" xlink:href="#linear-gradient"/><linearGradient id="linear-gradient-11" x1=".147" y1=".648" x2="1.131" y2="-.025" xlink:href="#linear-gradient"/><linearGradient id="linear-gradient-12" x1=".78" y1=".864" x2=".196" y2="-.348" xlink:href="#linear-gradient"/><linearGradient id="linear-gradient-13" x1=".389" y1=".506" x2=".64" y2=".349" gradientUnits="objectBoundingBox"><stop offset="0" stop-color="#fff"/><stop offset=".664" stop-color="#1e754a"/></linearGradient><linearGradient id="linear-gradient-14" x1="-.703" y1="-1.052" x2=".513" y2=".587" gradientUnits="objectBoundingBox"><stop offset="0" stop-color="#fff"/><stop offset="1" stop-color="#00665e"/></linearGradient></defs><g id="Group_3969" data-name="Group 3969" transform="translate(69.931)"><g id="Group_3966" data-name="Group 3966" transform="translate(.055 2.789)"><path id="Path_6866" data-name="Path 6866" d="M165.59 55.467a6.571 6.571 0 0 1-2.037-.33l-5.012-1.537a11.476 11.476 0 0 0-6.938 0l-5.011 1.542a6.9 6.9 0 0 1-5.506-.661 6.816 6.816 0 0 1-3.3-4.46l-1.215-5.121a12.039 12.039 0 0 0-3.469-6l-3.8-3.579a6.927 6.927 0 0 1 0-10.132l3.8-3.579a11.871 11.871 0 0 0 3.469-6l1.211-5.121a6.816 6.816 0 0 1 3.3-4.46 6.9 6.9 0 0 1 5.506-.661L151.6 6.9a11.476 11.476 0 0 0 6.938 0l5.011-1.542a6.9 6.9 0 0 1 5.506.661 6.816 6.816 0 0 1 3.3 4.46l1.211 5.121a12.039 12.039 0 0 0 3.469 6l3.8 3.579a6.927 6.927 0 0 1 0 10.132l-3.8 3.579a11.871 11.871 0 0 0-3.469 6l-1.211 5.121a6.816 6.816 0 0 1-3.3 4.46 6.051 6.051 0 0 1-3.465.996zM144.555 6.626a5.216 5.216 0 0 0-2.7.716 5.52 5.52 0 0 0-2.588 3.469l-1.211 5.121a13.775 13.775 0 0 1-3.91 6.828l-3.8 3.579a5.458 5.458 0 0 0 0 7.929l3.8 3.579a13.158 13.158 0 0 1 3.91 6.828l1.211 5.121a5.458 5.458 0 0 0 6.883 3.965l5.011-1.542a13.694 13.694 0 0 1 7.874 0l5.011 1.542a5.352 5.352 0 0 0 4.295-.5 5.52 5.52 0 0 0 2.588-3.469l1.211-5.121a13.774 13.774 0 0 1 3.91-6.828l3.8-3.579a5.458 5.458 0 0 0 0-7.929l-3.8-3.579a13.157 13.157 0 0 1-3.91-6.828l-1.211-5.121a5.458 5.458 0 0 0-6.883-3.965l-5.011 1.542a13.694 13.694 0 0 1-7.874 0l-5.011-1.542a8.538 8.538 0 0 0-1.595-.216z" transform="translate(-127.1 -5.064)" fill="#00ce7c"/></g><path id="Path_6867" data-name="Path 6867" d="M146.952 13.013l.5-2.2a5.337 5.337 0 0 1 2.588-3.469 5.216 5.216 0 0 1 2.7-.716 5.323 5.323 0 0 1 1.6.22l2.092.661a9.173 9.173 0 0 1 1.266-1.266l-2.918-.881a6.9 6.9 0 0 0-5.506.661 6.816 6.816 0 0 0-3.3 4.46L145.3 13.4c.5-.112 1.046-.277 1.652-.387z" transform="translate(-135.223 -2.276)" opacity=".66" fill="url(#linear-gradient)"/><path id="Path_6868" data-name="Path 6868" d="M189.451 7.662l2.368-.716a5.352 5.352 0 0 1 4.295.5 5.52 5.52 0 0 1 2.588 3.469l.441 1.927c.551.055 1.1.11 1.652.22l-.606-2.478a6.816 6.816 0 0 0-3.3-4.46 6.9 6.9 0 0 0-5.506-.661l-2.478.716a11.85 11.85 0 0 1 .546 1.483z" transform="translate(-154.815 -2.321)" opacity=".66" fill="url(#linear-gradient-2)"/><path id="Path_6869" data-name="Path 6869" d="M131.956 50.475l-1.656-1.542a5.458 5.458 0 0 1 0-7.929l1.707-1.6c-.165-.551-.33-1.1-.5-1.707l-2.307 2.15a6.927 6.927 0 0 0 0 10.132l2.2 2.037a6.528 6.528 0 0 1 .556-1.541z" transform="translate(-127 -16.941)" opacity=".66" fill="url(#linear-gradient-3)"/><path id="Path_6870" data-name="Path 6870" d="M222.688 39.982L220.541 38a15.448 15.448 0 0 1-.441 1.707l1.542 1.432a5.458 5.458 0 0 1 0 7.929l-.991.936a2.509 2.509 0 0 1 .936 1.211l1.1-.991a7.054 7.054 0 0 0 0-10.242z" transform="translate(-168.835 -17.076)" opacity=".66" fill="url(#linear-gradient-4)"/><path id="Path_6871" data-name="Path 6871" d="M156.984 88.187a3.311 3.311 0 0 1-.5-.716l-2.258.661a5.352 5.352 0 0 1-4.295-.5 5.52 5.52 0 0 1-2.588-3.469L146.8 81.8h-1.6l.606 2.7a6.816 6.816 0 0 0 3.3 4.46 6.9 6.9 0 0 0 5.506.661l2.7-.826c-.053-.167-.218-.387-.328-.608z" transform="translate(-135.178 -36.758)" opacity=".66" fill="url(#linear-gradient-5)"/><path id="Path_6872" data-name="Path 6872" d="M198.717 82.965l-.385 1.707a5.458 5.458 0 0 1-6.883 3.965l-2.368-.716a9.185 9.185 0 0 0-.881 1.322l2.808.881a6.571 6.571 0 0 0 2.037.33 7.129 7.129 0 0 0 3.469-.936 6.816 6.816 0 0 0 3.3-4.46l.551-2.258z" transform="translate(-154.501 -37.207)" opacity=".66" fill="url(#linear-gradient-6)"/><g id="Group_3967" data-name="Group 3967" transform="translate(2.844 .055)"><path id="Path_6873" data-name="Path 6873" d="M157.348 56.045a6.835 6.835 0 0 1-5.066-2.2l-3.579-3.8a11.871 11.871 0 0 0-6-3.469l-5.121-1.211a6.816 6.816 0 0 1-4.46-3.3 6.9 6.9 0 0 1-.661-5.506L134 31.542a11.476 11.476 0 0 0 0-6.938l-1.542-5.011a6.9 6.9 0 0 1 .661-5.506 6.816 6.816 0 0 1 4.46-3.3l5.121-1.216a12.039 12.039 0 0 0 6-3.469l3.579-3.8a6.927 6.927 0 0 1 10.132 0l3.579 3.8a11.871 11.871 0 0 0 6 3.469l5.121 1.211a6.816 6.816 0 0 1 4.46 3.3 6.9 6.9 0 0 1 .661 5.506L180.7 24.6a11.476 11.476 0 0 0 0 6.938l1.542 5.011a6.9 6.9 0 0 1-.661 5.506 6.816 6.816 0 0 1-4.46 3.3L172 46.574a12.039 12.039 0 0 0-6 3.469l-3.579 3.8a6.835 6.835 0 0 1-5.073 2.202zm0-54.458a5.37 5.37 0 0 0-3.965 1.707l-3.579 3.8A13.157 13.157 0 0 1 142.976 11l-5.121 1.211a5.458 5.458 0 0 0-3.965 6.883l1.542 5.011a13.694 13.694 0 0 1 0 7.874l-1.542 5.011a5.352 5.352 0 0 0 .5 4.295 5.52 5.52 0 0 0 3.469 2.588l5.121 1.211A13.775 13.775 0 0 1 149.8 49l3.579 3.8a5.458 5.458 0 0 0 7.929 0l3.579-3.8a13.157 13.157 0 0 1 6.828-3.91l5.121-1.211a5.458 5.458 0 0 0 3.965-6.883l-1.542-5.011a13.694 13.694 0 0 1 0-7.874l1.542-5.011a5.352 5.352 0 0 0-.5-4.295 5.52 5.52 0 0 0-3.469-2.588l-5.121-1.156a13.775 13.775 0 0 1-6.828-3.91l-3.579-3.8a5.224 5.224 0 0 0-3.956-1.764z" transform="translate(-132.164 -.1)" fill="#00ce7c"/></g><g id="Group_3968" data-name="Group 3968" transform="translate(2.789)"><path id="Path_6874" data-name="Path 6874" d="M134.7 50.848l1.266 1.211.661-2.092a13.694 13.694 0 0 0 0-7.874L135.966 40l-1.266 1.211.441 1.377a11.476 11.476 0 0 1 0 6.938z" transform="translate(-133.249 -17.974)" fill="#00ce7c"/><path id="Path_6875" data-name="Path 6875" d="M150.092 15.1a13.775 13.775 0 0 0 6.828-3.91l1.487-1.6-1.652-.5-.991 1.046a11.871 11.871 0 0 1-6 3.469l-1.377.33-.387 1.718z" transform="translate(-139.225 -4.089)" fill="#00ce7c"/><path id="Path_6876" data-name="Path 6876" d="M190.432 11.147a13.157 13.157 0 0 0 6.828 3.91l2.147.5-.385-1.707-1.377-.33a12.039 12.039 0 0 1-6-3.469L190.652 9 189 9.5z" transform="translate(-157.649 -4.044)" fill="#00ce7c"/><path id="Path_6877" data-name="Path 6877" d="M197.215 81.251a13.775 13.775 0 0 0-6.828 3.91l-1.487 1.6 1.652.5.991-1.046a11.871 11.871 0 0 1 6-3.469l1.377-.33.385-1.707z" transform="translate(-157.604 -36.263)" fill="#00ce7c"/><path id="Path_6878" data-name="Path 6878" d="M218.615 49.426a11.476 11.476 0 0 1 0-6.938l.441-1.377-1.267-1.211-.661 2.092a13.694 13.694 0 0 0 0 7.874l.661 2.092 1.266-1.211z" transform="translate(-170.029 -17.929)" fill="#00ce7c"/><path id="Path_6879" data-name="Path 6879" d="M216.7 62.7l-1.266 1.211.385 1.266a5.352 5.352 0 0 1-.5 4.295 5.52 5.52 0 0 1-3.469 2.588l-1.266.275-.385 1.707 2.037-.5a6.816 6.816 0 0 0 4.46-3.3 6.9 6.9 0 0 0 .661-5.506z" transform="translate(-167.175 -28.175)" opacity=".66" fill="url(#linear-gradient-7)"/><path id="Path_6880" data-name="Path 6880" d="M156.875 85.305a13.157 13.157 0 0 0-6.828-3.91l-2.147-.5.385 1.707 1.377.33a12.039 12.039 0 0 1 6 3.469l.991 1.046 1.652-.5z" transform="translate(-139.18 -36.353)" fill="#00ce7c"/><path id="Path_6881" data-name="Path 6881" d="M139.177 72.236l-1.266-.275a5.458 5.458 0 0 1-3.965-6.883l.385-1.266-1.266-1.212-.606 1.982a6.9 6.9 0 0 0 .661 5.506 6.816 6.816 0 0 0 4.46 3.3l2.037.5z" transform="translate(-132.109 -28.13)" opacity=".66" fill="url(#linear-gradient-8)"/><path id="Path_6882" data-name="Path 6882" d="M177.443 94.1l-.881.936a5.458 5.458 0 0 1-7.929 0l-.881-.936-1.652.5 1.432 1.487a6.835 6.835 0 0 0 5.066 2.2 6.835 6.835 0 0 0 5.066-2.2L179.1 94.6z" transform="translate(-147.359 -42.285)" opacity=".66" fill="url(#linear-gradient-9)"/><path id="Path_6883" data-name="Path 6883" d="M167.8 4.24l.881-.936a5.458 5.458 0 0 1 7.929 0l.881.936 1.652-.5-1.38-1.54a6.927 6.927 0 0 0-10.132 0L166.2 3.689z" transform="translate(-147.404)" opacity=".66" fill="url(#linear-gradient-10)"/><path id="Path_6884" data-name="Path 6884" d="M133.02 29.843l1.266-1.211-.385-1.266a5.352 5.352 0 0 1 .5-4.295 5.52 5.52 0 0 1 3.469-2.588l1.266-.275.385-1.707-2.037.5a6.816 6.816 0 0 0-4.46 3.3 6.9 6.9 0 0 0-.661 5.506z" transform="translate(-132.064 -8.313)" opacity=".66" fill="url(#linear-gradient-11)"/><path id="Path_6885" data-name="Path 6885" d="M210.541 20.252l1.266.275a5.458 5.458 0 0 1 3.965 6.883l-.385 1.266 1.266 1.211.606-1.982a6.9 6.9 0 0 0-.659-5.505 6.816 6.816 0 0 0-4.46-3.3l-2.037-.5z" transform="translate(-167.13 -8.358)" opacity=".66" fill="url(#linear-gradient-12)"/></g></g><g id="Group_3972" data-name="Group 3972" transform="translate(91.847 11.586)"><path id="Path_6886" data-name="Path 6886" d="M169.113 61.891l14.427-14.427a2.194 2.194 0 0 0 0-3.139l-4.626-4.625-10.848 10.848a4.3 4.3 0 0 0-1.266 3.029v7.379a1.369 1.369 0 0 0 2.313.935z" transform="translate(-166.8 -29.425)" fill="#00ce7c"/><path id="Path_6887" data-name="Path 6887" d="M169.113 61.891l14.427-14.427a2.194 2.194 0 0 0 0-3.139l-4.626-4.625-10.848 10.848a4.3 4.3 0 0 0-1.266 3.029v7.379a1.369 1.369 0 0 0 2.313.935z" transform="translate(-166.8 -29.425)" opacity=".66" fill="url(#linear-gradient-13)"/><g id="Group_3970" data-name="Group 3970"><path id="Path_6888" data-name="Path 6888" d="M166.8 22.395v7.379a4.115 4.115 0 0 0 1.266 3.029l10.848 10.847 4.625-4.625a2.194 2.194 0 0 0 0-3.139l-14.426-14.427a1.344 1.344 0 0 0-2.313.936z" transform="translate(-166.8 -21.041)" fill="#00665e"/></g><g id="Group_3971" data-name="Group 3971"><path id="Path_6889" data-name="Path 6889" d="M166.8 22.395v7.379a4.115 4.115 0 0 0 1.266 3.029l10.848 10.847 4.625-4.625a2.194 2.194 0 0 0 0-3.139l-14.426-14.427a1.344 1.344 0 0 0-2.313.936z" transform="translate(-166.8 -21.041)" fill="url(#linear-gradient-14)"/></g></g><g id="Group_3973" data-name="Group 3973" transform="translate(0 14.977)" fill="#009552"><path id="Path_6890" data-name="Path 6890" d="M7.984 43a8.9 8.9 0 0 0-1.542-5.561 8.752 8.752 0 0 0-4.35-2.753.375.375 0 0 0-.441.22l-.33 1.156a.313.313 0 0 0 .22.385 6.2 6.2 0 0 1 3.194 2.037 6.672 6.672 0 0 1 1.156 3.854H.33c-.165.11-.33.22-.33.441v.991a.355.355 0 0 0 .33.33h7.324a.355.355 0 0 0 .33-.33V43z" transform="translate(0 -30.559)"/><path id="Path_6891" data-name="Path 6891" d="M31.163 40.746h.606q2.147-.083 2.643-1.652c.716 1.1 2.2 1.652 4.35 1.652h22.962a.355.355 0 0 0 .33-.33v-.991a.355.355 0 0 0-.33-.33h-1.156a6.092 6.092 0 0 1-3.634-.936 2.91 2.91 0 0 1-.385-4.295 2.534 2.534 0 0 1 1.927-.716 6.287 6.287 0 0 1 1.817.275.375.375 0 0 0 .441-.22l.22-1.046a.313.313 0 0 0-.22-.385 9.65 9.65 0 0 0-2.2-.275 4.911 4.911 0 0 0-3.634 1.32 4.459 4.459 0 0 0-1.211 3.139 3.22 3.22 0 0 0 1.811 3.138h-5.78v-7.048a.355.355 0 0 0-.33-.33H47.9a.355.355 0 0 0-.33.33v7.048h-5.063v-3.249c0-2.918-1.432-4.35-4.24-4.35a4.766 4.766 0 0 0-3.634 1.432 4.58 4.58 0 0 0-1.211 3.249 3.532 3.532 0 0 1-.606 2.313 2.161 2.161 0 0 1-1.652.606h-9.472V27.53a.355.355 0 0 0-.33-.33H19.93a.355.355 0 0 0-.33.33v12.885a.355.355 0 0 0 .33.33h11.233zm5.066-6.773a2.421 2.421 0 0 1 1.927-.826c1.542 0 2.313.991 2.313 3.029v2.918h-1.707c-2.147 0-3.194-.991-3.194-3.029a2.823 2.823 0 0 1 .661-2.092z" transform="translate(-8.807 -27.2)"/><path id="Path_6892" data-name="Path 6892" d="M73.6 30.513a1.156 1.156 0 1 0 0-2.313 1 1 0 0 0-.771.33 1.2 1.2 0 0 0 0 1.652.924.924 0 0 0 .771.331z" transform="translate(-32.579 -27.649)"/><path id="Path_6893" data-name="Path 6893" d="M68.1 30.513a1.156 1.156 0 1 0 0-2.313 1 1 0 0 0-.771.33 1.2 1.2 0 0 0 0 1.652 1.087 1.087 0 0 0 .771.331z" transform="translate(-30.107 -27.649)"/><path id="Path_6894" data-name="Path 6894" d="M103.062 27.2h-1.432a.355.355 0 0 0-.33.33v12.885a.355.355 0 0 0 .33.33h1.432a.355.355 0 0 0 .33-.33V27.53a.292.292 0 0 0-.33-.33z" transform="translate(-45.52 -27.2)"/></g><g id="Group_3974" data-name="Group 3974" transform="translate(22.852 32.433)" fill="#00ce7c"><path id="Path_6895" data-name="Path 6895" d="M41.72 67.929h3.744a.237.237 0 0 0 .22-.22v-.661a.237.237 0 0 0-.22-.22h-2.642v-2.423h2.533a.237.237 0 0 0 .22-.22v-.661a.237.237 0 0 0-.22-.22h-2.533V61.1h2.643a.237.237 0 0 0 .22-.22v-.66a.237.237 0 0 0-.22-.22H41.72a.237.237 0 0 0-.22.22v7.489c.055.11.11.22.22.22z" transform="translate(-41.5 -59.394)"/><path id="Path_6896" data-name="Path 6896" d="M54.239 66.938a.686.686 0 0 1-.606-.22 1.643 1.643 0 0 1-.165-.881v-2.753h1.322a.237.237 0 0 0 .22-.22v-.551a.237.237 0 0 0-.22-.22h-1.322V60.22a.237.237 0 0 0-.22-.22h-.826a.237.237 0 0 0-.22.22v1.872h-.882a.237.237 0 0 0-.22.22v.551a.237.237 0 0 0 .22.22h.88v3.139a2.193 2.193 0 0 0 .33 1.377 1.588 1.588 0 0 0 1.266.385 6.747 6.747 0 0 0 1.046-.11c.11 0 .165-.11.165-.22l-.055-.606c0-.11-.11-.22-.22-.165a1.525 1.525 0 0 1-.493.055z" transform="translate(-45.814 -59.394)"/><path id="Path_6897" data-name="Path 6897" d="M61.52 69.637h.826a.237.237 0 0 0 .22-.22v-5.4a.237.237 0 0 0-.22-.22h-.826a.237.237 0 0 0-.22.22v5.4c.055.11.11.22.22.22z" transform="translate(-50.397 -61.102)"/><path id="Path_6898" data-name="Path 6898" d="M61.671 59.2a.753.753 0 1 0 .551.22.707.707 0 0 0-.551-.22z" transform="translate(-50.218 -59.035)"/><path id="Path_6899" data-name="Path 6899" d="M73.308 63.7a1.972 1.972 0 0 0-1.927 1.266 1.44 1.44 0 0 0-1.6-1.266 1.924 1.924 0 0 0-1.927 1.266 5.038 5.038 0 0 0 .055-.936.237.237 0 0 0-.22-.22h-.769a.237.237 0 0 0-.22.22v5.341a.237.237 0 0 0 .22.22h.826a.237.237 0 0 0 .22-.22v-2.532a2.506 2.506 0 0 1 .441-1.487 1.247 1.247 0 0 1 1.046-.606q.826 0 .826 1.156v3.469a.237.237 0 0 0 .22.22h.826a.237.237 0 0 0 .22-.22v-2.532a2.818 2.818 0 0 1 .441-1.542 1.167 1.167 0 0 1 .991-.551q.826 0 .826 1.156v3.469a.237.237 0 0 0 .22.22h.826a.237.237 0 0 0 .22-.22v-3.8c-.054-1.265-.605-1.871-1.761-1.871z" transform="translate(-52.824 -61.057)"/><path id="Path_6900" data-name="Path 6900" d="M89.47 65.637a2.019 2.019 0 0 0-.5-1.487 2.2 2.2 0 0 0-1.707-.551 6.236 6.236 0 0 0-1.982.33c-.11.055-.165.11-.11.22l.11.551a.3.3 0 0 0 .275.165 3.887 3.887 0 0 1 1.542-.33 1.2 1.2 0 0 1 .881.275 1.293 1.293 0 0 1 .275.881v.33a5.2 5.2 0 0 0-2.478.5A1.615 1.615 0 0 0 86.5 69.6a1.881 1.881 0 0 0 1.927-1.211 3.918 3.918 0 0 0-.055.881.237.237 0 0 0 .22.22h.771a.237.237 0 0 0 .22-.22v-3.633zm-1.211 1.377a1.5 1.5 0 0 1-.385 1.1 1.251 1.251 0 0 1-.991.5.638.638 0 0 1-.551-.22.707.707 0 0 1-.22-.551c0-.661.716-.991 2.2-.991v.165z" transform="translate(-61.002 -61.012)"/><path id="Path_6901" data-name="Path 6901" d="M99.71 59.12v2.48a6.5 6.5 0 0 0-.881-.055 2.787 2.787 0 0 0-2.2.881 3.353 3.353 0 0 0-.826 2.368 2.938 2.938 0 0 0 .551 1.982 2.088 2.088 0 0 0 3.469-.5 4.451 4.451 0 0 0-.055.881.237.237 0 0 0 .22.22h.771a.237.237 0 0 0 .22-.22V59.12a.237.237 0 0 0-.22-.22h-.829c-.11.055-.22.11-.22.22zm0 5.286a2.543 2.543 0 0 1-.385 1.432 1.191 1.191 0 0 1-1.046.661q-1.156 0-1.156-1.817 0-2.147 1.652-2.147a6.132 6.132 0 0 1 .936.11z" transform="translate(-65.9 -58.9)"/></g></svg>